<svg width="43" height="43" viewBox="0 0 43 43" fill="none" xmlns="http://www.w3.org/2000/svg">
<g clip-path="url(#clip0_582_29373)">
<path d="M43 21.5C43 9.62587 33.3741 0 21.5 0C9.62587 0 0 9.62587 0 21.5C0 32.2311 7.8622 41.1259 18.1406 42.7388V27.7148H12.6816V21.5H18.1406V16.7633C18.1406 11.3748 21.3505 8.39844 26.2615 8.39844C28.6131 8.39844 31.0742 8.81836 31.0742 8.81836V14.1094H28.3632C25.6925 14.1094 24.8594 15.7668 24.8594 17.4688V21.5H30.8223L29.869 27.7148H24.8594V42.7388C35.1378 41.1259 43 32.2311 43 21.5Z" fill="#335DF2"/>
<path d="M29.869 27.7148L30.8223 21.5H24.8594V17.4687C24.8594 15.7685 25.6925 14.1094 28.3632 14.1094H31.0742V8.81836C31.0742 8.81836 28.6139 8.39844 26.2615 8.39844C21.3505 8.39844 18.1406 11.3748 18.1406 16.7633V21.5H12.6816V27.7148H18.1406V42.7388C20.3667 43.0871 22.6333 43.0871 24.8594 42.7388V27.7148H29.869Z" fill="white"/>
</g>
<defs>
<clipPath id="clip0_582_29373">
<rect width="43" height="43" fill="white"/>
</clipPath>
</defs>
</svg>
