<svg width="44" height="44" viewBox="0 0 44 44" fill="none" xmlns="http://www.w3.org/2000/svg">
<g clip-path="url(#clip0_582_29376)">
<path d="M43.0807 22.4953C43.0807 21.0337 42.9622 19.5643 42.7094 18.1265H22.4299V26.4058H34.043C33.5611 29.076 32.0127 31.4381 29.7454 32.9391V38.3112H36.6738C40.7423 34.5665 43.0807 29.0365 43.0807 22.4953Z" fill="#4285F4"/>
<path d="M22.43 43.5015C28.2286 43.5015 33.1188 41.5976 36.6817 38.3111L29.7533 32.9391C27.8257 34.2505 25.3372 34.9931 22.4379 34.9931C16.8288 34.9931 12.073 31.209 10.3666 26.1214H3.21704V31.6593C6.86687 38.9194 14.3008 43.5015 22.43 43.5015V43.5015Z" fill="#34A853"/>
<path d="M10.3586 26.1214C9.45804 23.4511 9.45804 20.5597 10.3586 17.8895V12.3516H3.217C0.167576 18.4267 0.167576 25.5842 3.217 31.6593L10.3586 26.1214V26.1214Z" fill="#FBBC04"/>
<path d="M22.43 9.00981C25.4952 8.96241 28.4577 10.1158 30.6776 12.233L36.816 6.09469C32.9291 2.44486 27.7704 0.438248 22.43 0.501449C14.3008 0.501449 6.86687 5.08348 3.21704 12.3515L10.3587 17.8895C12.0572 12.7939 16.8209 9.00981 22.43 9.00981V9.00981Z" fill="#EA4335"/>
</g>
<defs>
<clipPath id="clip0_582_29376">
<rect width="43" height="43" fill="white" transform="translate(0.5 0.5)"/>
</clipPath>
</defs>
</svg>
