<svg width="43" height="43" viewBox="0 0 43 43" fill="none" xmlns="http://www.w3.org/2000/svg">
<path d="M21.5 3.87168C27.2445 3.87168 27.9248 3.89687 30.184 3.99766C32.2836 4.09004 33.4174 4.44277 34.1732 4.73672C35.1727 5.12305 35.8949 5.59336 36.6424 6.34082C37.3982 7.09668 37.8602 7.81055 38.2465 8.80996C38.5404 9.56582 38.8932 10.708 38.9855 12.7992C39.0863 15.0668 39.1115 15.7471 39.1115 21.4832C39.1115 27.2277 39.0863 27.908 38.9855 30.1672C38.8932 32.2668 38.5404 33.4006 38.2465 34.1564C37.8602 35.1559 37.3898 35.8781 36.6424 36.6256C35.8865 37.3814 35.1727 37.8434 34.1732 38.2297C33.4174 38.5236 32.2752 38.8764 30.184 38.9687C27.9164 39.0695 27.2361 39.0947 21.5 39.0947C15.7555 39.0947 15.0752 39.0695 12.816 38.9687C10.7164 38.8764 9.58262 38.5236 8.82676 38.2297C7.82734 37.8434 7.10508 37.373 6.35762 36.6256C5.60176 35.8697 5.13984 35.1559 4.75352 34.1564C4.45957 33.4006 4.10684 32.2584 4.01445 30.1672C3.91367 27.8996 3.88848 27.2193 3.88848 21.4832C3.88848 15.7387 3.91367 15.0584 4.01445 12.7992C4.10684 10.6996 4.45957 9.56582 4.75352 8.80996C5.13984 7.81055 5.61016 7.08828 6.35762 6.34082C7.11348 5.58496 7.82734 5.12305 8.82676 4.73672C9.58262 4.44277 10.7248 4.09004 12.816 3.99766C15.0752 3.89687 15.7555 3.87168 21.5 3.87168ZM21.5 0C15.6631 0 14.9324 0.0251953 12.6396 0.125977C10.3553 0.226758 8.78477 0.596289 7.42422 1.12539C6.00488 1.67969 4.80391 2.41035 3.61133 3.61133C2.41035 4.80391 1.67969 6.00488 1.12539 7.41582C0.596289 8.78477 0.226758 10.3469 0.125977 12.6312C0.0251953 14.9324 0 15.6631 0 21.5C0 27.3369 0.0251953 28.0676 0.125977 30.3604C0.226758 32.6447 0.596289 34.2152 1.12539 35.5758C1.67969 36.9951 2.41035 38.1961 3.61133 39.3887C4.80391 40.5812 6.00488 41.3203 7.41582 41.8662C8.78477 42.3953 10.3469 42.7648 12.6313 42.8656C14.924 42.9664 15.6547 42.9916 21.4916 42.9916C27.3285 42.9916 28.0592 42.9664 30.352 42.8656C32.6363 42.7648 34.2068 42.3953 35.5674 41.8662C36.9783 41.3203 38.1793 40.5812 39.3719 39.3887C40.5645 38.1961 41.3035 36.9951 41.8494 35.5842C42.3785 34.2152 42.748 32.6531 42.8488 30.3688C42.9496 28.076 42.9748 27.3453 42.9748 21.5084C42.9748 15.6715 42.9496 14.9408 42.8488 12.648C42.748 10.3637 42.3785 8.79316 41.8494 7.43262C41.3203 6.00488 40.5897 4.80391 39.3887 3.61133C38.1961 2.41875 36.9951 1.67969 35.5842 1.13379C34.2152 0.604687 32.6531 0.235156 30.3688 0.134375C28.0676 0.0251953 27.3369 0 21.5 0Z" fill="url(#paint0_linear_1189_5519)"/>
<path d="M21.5 10.4561C15.4027 10.4561 10.4561 15.4027 10.4561 21.5C10.4561 27.5973 15.4027 32.5439 21.5 32.5439C27.5973 32.5439 32.5439 27.5973 32.5439 21.5C32.5439 15.4027 27.5973 10.4561 21.5 10.4561ZM21.5 28.6639C17.5443 28.6639 14.3361 25.4557 14.3361 21.5C14.3361 17.5443 17.5443 14.3361 21.5 14.3361C25.4557 14.3361 28.6639 17.5443 28.6639 21.5C28.6639 25.4557 25.4557 28.6639 21.5 28.6639Z" fill="url(#paint1_linear_1189_5519)"/>
<path d="M35.559 10.0194C35.559 11.4471 34.4 12.5977 32.9807 12.5977C31.5529 12.5977 30.4023 11.4387 30.4023 10.0194C30.4023 8.59163 31.5613 7.44104 32.9807 7.44104C34.4 7.44104 35.559 8.60003 35.559 10.0194Z" fill="url(#paint2_linear_1189_5519)"/>
<defs>
<linearGradient id="paint0_linear_1189_5519" x1="21.4874" y1="0" x2="21.4874" y2="42.9916" gradientUnits="userSpaceOnUse">
<stop stop-color="#C72084"/>
<stop offset="0.333333" stop-color="#ED6B23"/>
<stop offset="0.78125" stop-color="#E2367B" stop-opacity="0.961468"/>
<stop offset="1" stop-color="#670F5E"/>
</linearGradient>
<linearGradient id="paint1_linear_1189_5519" x1="21.5" y1="10.4561" x2="21.5" y2="32.5439" gradientUnits="userSpaceOnUse">
<stop stop-color="#FE34EA"/>
<stop offset="1" stop-color="#FD772B"/>
</linearGradient>
<linearGradient id="paint2_linear_1189_5519" x1="32.9807" y1="7.44104" x2="32.9807" y2="12.5977" gradientUnits="userSpaceOnUse">
<stop stop-color="#FE34EA"/>
<stop offset="1" stop-color="#FD772B"/>
</linearGradient>
</defs>
</svg>
